<svg id="Слой_1" data-name="Слой 1" xmlns="http://www.w3.org/2000/svg" viewBox="0 0 380.01 67.05"><defs><style>.cls-1,.cls-2{fill:#fff;}.cls-1{fill-rule:evenodd;opacity:0.95;}</style></defs><title>logo-mtmd</title><path class="cls-1" d="M42.31,54.73a9.37,9.37,0,0,1-3.06.54,12.25,12.25,0,0,1-11.8-9A19.89,19.89,0,0,1,27,41.6c0-.95-0.06-2.11-0.07-3.42,2.13,3.43,4.52,7.31,5.86,8.95l0.61,0.76L34,47.13a63.89,63.89,0,0,0,3.93-5.78,58.56,58.56,0,0,1,3.63-5.41c0.2,5.54.67,16.84,0.7,17.63C42.24,54,42.27,54.35,42.31,54.73Z"/><path class="cls-1" d="M46.59,12.57a21.34,21.34,0,0,0-7.65,5.79l-0.71.75a58.94,58.94,0,0,1-5,5c-1-.88-3.14-3.09-4-4-0.33-.34-0.53-0.56-0.58-0.59-0.62-.55-1.24-1.06-1.87-1.54a56.45,56.45,0,0,0-.34-7.46c-0.81-3.06-1.83-4.27-4.91-5.44a13.53,13.53,0,0,1,10.06-5C39.94-.55,45.55,4.23,46.59,12.57Z"/><path class="cls-1" d="M91.23,48.95a20.71,20.71,0,0,1-12.75,5,21.58,21.58,0,0,1-14.73-4.43c0-2.95,0-6.38,0-9.63,0-2.61-.46-5.14-0.48-7.43C64.18,34,65,35.26,65,35.89V14.57a12.56,12.56,0,0,1,17,1.8,14.65,14.65,0,0,1,3.54,9.24c0.05,5.35-.17,10.7.38,16C86.3,45,87.52,47.69,91.23,48.95Z"/><path class="cls-2" d="M67,63.1A12.93,12.93,0,0,1,58.1,67c-8.27.64-13.63-4.29-14.28-12.89a3.92,3.92,0,0,1-.05-0.6c0-.92-0.67-15.64-0.74-19.6L43,32l-1.33,1.43a45.3,45.3,0,0,0-5.1,7.15c-1,1.6-2,3.26-3.22,4.84C32,43.51,30,40.22,28.15,37.28l-1.31-2.13c-1.05-1.68-1.92-3-2.42-3.68L23,29.64V52.88A10.66,10.66,0,0,1,16.68,55a11.69,11.69,0,0,1-8.83-4,13.59,13.59,0,0,1-3.12-8.76c0-1.65,0-3.29,0-4.94a92.53,92.53,0,0,0-.31-11.18c-0.26-2.61-1-5.73-4.44-7.43a20.16,20.16,0,0,1,11.31-4,20.92,20.92,0,0,1,15.47,5.27c0.28,0.21.55,0.45,0.83,0.7,0,0,.24.23,0.49,0.51a60.79,60.79,0,0,0,4.59,4.49L33,25.87l0.38-.12c1-.36,2.82-2.25,6-5.58l0.71-.76a21,21,0,0,1,6.65-5.22,9.36,9.36,0,0,1,3.78-.86,11.5,11.5,0,0,1,11,8.4A17.75,17.75,0,0,1,62,25.79l0,0.46c0,1,.06,2.25.07,3.67,0.05,2.82.05,6.32,0.05,10,0,3.17,0,6,0,8.39,0,5,.13,8.29.39,9.27C63.35,60.5,64.43,61.93,67,63.1Z"/><rect class="cls-2" x="114.01" width="1" height="67"/><path class="cls-2" d="M141.28,18.13V4.52h1.84v6h1.42a1.74,1.74,0,0,0,.72-0.14,1.65,1.65,0,0,0,.59-0.53L149.41,5a1.22,1.22,0,0,1,.34-0.38,0.81,0.81,0,0,1,.48-0.14h1.55l-4.11,5.61a2.36,2.36,0,0,1-.54.56,2.48,2.48,0,0,1-.65.34,2.09,2.09,0,0,1,.84.42,3.37,3.37,0,0,1,.66.8l4.17,5.87H150.5A0.76,0.76,0,0,1,150,18a1.49,1.49,0,0,1-.36-0.43l-3.61-5a1.54,1.54,0,0,0-.53-0.52,1.69,1.69,0,0,0-.77-0.15h-1.63v6.23h-1.84Z"/><path class="cls-2" d="M152.84,15.73a2.13,2.13,0,0,1,.31-1.09,2.71,2.71,0,0,1,1-.94A6.77,6.77,0,0,1,156,13a13.75,13.75,0,0,1,2.78-.3V12a2.55,2.55,0,0,0-.49-1.69,1.76,1.76,0,0,0-1.42-.57,3,3,0,0,0-1.05.16,4.29,4.29,0,0,0-.73.35l-0.53.35a0.76,0.76,0,0,1-.44.16,0.49,0.49,0,0,1-.29-0.09,0.73,0.73,0,0,1-.21-0.23l-0.3-.54A5.51,5.51,0,0,1,155,8.71a5.28,5.28,0,0,1,2-.38,3.53,3.53,0,0,1,1.42.27,3,3,0,0,1,1,.74,3.1,3.1,0,0,1,.64,1.15,4.83,4.83,0,0,1,.22,1.48v6.16h-0.75a0.74,0.74,0,0,1-.38-0.08,0.58,0.58,0,0,1-.21-0.32l-0.16-.9a9.56,9.56,0,0,1-.74.61,4.55,4.55,0,0,1-.76.45,3.9,3.9,0,0,1-.84.28,4.76,4.76,0,0,1-1,.1,3.54,3.54,0,0,1-1.05-.15,2.32,2.32,0,0,1-.85-0.47,2.25,2.25,0,0,1-.57-0.79A2.78,2.78,0,0,1,152.84,15.73Zm1.61-.1a1.58,1.58,0,0,0,.12.65,1.19,1.19,0,0,0,.33.44,1.33,1.33,0,0,0,.51.25,2.43,2.43,0,0,0,.63.08,3.58,3.58,0,0,0,.82-0.09,3.09,3.09,0,0,0,.7-0.25,3.76,3.76,0,0,0,.63-0.4,5.66,5.66,0,0,0,.59-0.54v-2a14.21,14.21,0,0,0-2,.18,5.74,5.74,0,0,0-1.34.38,1.83,1.83,0,0,0-.75.55A1.19,1.19,0,0,0,154.45,15.63Z"/><path class="cls-2" d="M162.22,13.36a5.34,5.34,0,0,1,.36-2,4.45,4.45,0,0,1,1-1.54,4.77,4.77,0,0,1,1.61-1,6.67,6.67,0,0,1,2.14-.43V4.52H169V8.36a6.67,6.67,0,0,1,2.14.43,4.77,4.77,0,0,1,1.61,1,4.45,4.45,0,0,1,1,1.54,5.35,5.35,0,0,1,.36,2,5.16,5.16,0,0,1-.36,2,4.32,4.32,0,0,1-1,1.51,4.82,4.82,0,0,1-1.61,1,6.61,6.61,0,0,1-2.14.41v3.24h-1.61V18.25a6.61,6.61,0,0,1-2.14-.41,4.81,4.81,0,0,1-1.61-1,4.31,4.31,0,0,1-1-1.51A5.16,5.16,0,0,1,162.22,13.36Zm1.71,0a4.55,4.55,0,0,0,.22,1.47,3.09,3.09,0,0,0,.66,1.13,3.12,3.12,0,0,0,1.08.75,4.27,4.27,0,0,0,1.49.31V9.69a4.42,4.42,0,0,0-1.49.32,3.17,3.17,0,0,0-1.09.75,3,3,0,0,0-.67,1.14A4.64,4.64,0,0,0,163.93,13.37Zm5,3.57V17a4.29,4.29,0,0,0,1.49-.31,3.11,3.11,0,0,0,1.09-.75,3.15,3.15,0,0,0,.67-1.13,4.47,4.47,0,0,0,.23-1.47,4.6,4.6,0,0,0-.23-1.48,3.13,3.13,0,0,0-.67-1.14,3.06,3.06,0,0,0-1.09-.74,4.54,4.54,0,0,0-1.5-.32v7.25Z"/><path class="cls-2" d="M175.56,13.12a5.53,5.53,0,0,1,.31-1.88,4.48,4.48,0,0,1,.89-1.51,4.09,4.09,0,0,1,1.42-1,4.7,4.7,0,0,1,1.9-.37,4.51,4.51,0,0,1,1.64.29,3.75,3.75,0,0,1,1.31.84,3.79,3.79,0,0,1,.86,1.35,5,5,0,0,1,.31,1.82,1.12,1.12,0,0,1-.08.53,0.36,0.36,0,0,1-.33.13h-6.52a5.34,5.34,0,0,0,.25,1.59,3.22,3.22,0,0,0,.63,1.13,2.51,2.51,0,0,0,.95.67,3.27,3.27,0,0,0,1.24.22,3.68,3.68,0,0,0,1.11-.15,5.43,5.43,0,0,0,.8-0.32q0.34-.17.56-0.32a0.76,0.76,0,0,1,.39-0.14,0.41,0.41,0,0,1,.35.16L184,16.78a3.27,3.27,0,0,1-.77.66,4.91,4.91,0,0,1-1,.46,6,6,0,0,1-1.05.27,6.76,6.76,0,0,1-1.08.09,5,5,0,0,1-1.85-.33,4,4,0,0,1-1.46-1,4.58,4.58,0,0,1-1-1.61A6.48,6.48,0,0,1,175.56,13.12Zm1.76-.85h5.26a3.38,3.38,0,0,0-.17-1.08,2.44,2.44,0,0,0-.49-0.85,2.17,2.17,0,0,0-.78-0.56,2.6,2.6,0,0,0-1-.2,2.57,2.57,0,0,0-1.92.71A3.41,3.41,0,0,0,177.32,12.27Z"/><path class="cls-2" d="M185.23,16.91h0.42a1.9,1.9,0,0,0,.66-0.14,1.72,1.72,0,0,0,.62-0.46,3.62,3.62,0,0,0,.57-0.92,8.48,8.48,0,0,0,.49-1.52,22,22,0,0,0,.39-2.25q0.17-1.32.25-3.1h6.05v8.35h1.84v4.07a0.5,0.5,0,0,1-.15.39,0.54,0.54,0,0,1-.38.13H194.9V18.13h-8.05V21a0.55,0.55,0,0,1-.11.33,0.44,0.44,0,0,1-.38.15h-1.12V16.91Zm3.07,0h4.76V9.84h-3q-0.09,1.49-.26,2.63a19.89,19.89,0,0,1-.39,2,9.34,9.34,0,0,1-.49,1.46A4.8,4.8,0,0,1,188.3,16.91Z"/><path class="cls-2" d="M198.15,21.39V8.51h1.12a0.45,0.45,0,0,1,.49.35L199.81,10a5.07,5.07,0,0,1,1.39-1.21A3.5,3.5,0,0,1,203,8.33a3.39,3.39,0,0,1,1.49.32,3.11,3.11,0,0,1,1.14.94,4.47,4.47,0,0,1,.72,1.54,8,8,0,0,1,.25,2.12,6.65,6.65,0,0,1-.28,2,4.86,4.86,0,0,1-.81,1.58,3.74,3.74,0,0,1-3,1.44A3.53,3.53,0,0,1,201,18a3.35,3.35,0,0,1-1.11-.85v4.27h-1.71Zm1.71-5.59a2.61,2.61,0,0,0,1,.88,2.93,2.93,0,0,0,1.23.25,2.44,2.44,0,0,0,2.07-1,4.45,4.45,0,0,0,.72-2.73,7,7,0,0,0-.16-1.61,3.07,3.07,0,0,0-.48-1.11,1.88,1.88,0,0,0-.77-0.63,2.58,2.58,0,0,0-1-.2,2.72,2.72,0,0,0-1.45.38,4.18,4.18,0,0,0-1.14,1.06V15.8Z"/><path class="cls-2" d="M207.91,15.73a2.13,2.13,0,0,1,.31-1.09,2.71,2.71,0,0,1,1-.94,6.77,6.77,0,0,1,1.83-.67,13.75,13.75,0,0,1,2.78-.3V12a2.55,2.55,0,0,0-.49-1.69,1.76,1.76,0,0,0-1.42-.57,3,3,0,0,0-1.05.16,4.29,4.29,0,0,0-.73.35l-0.53.35a0.76,0.76,0,0,1-.44.16,0.49,0.49,0,0,1-.29-0.09,0.73,0.73,0,0,1-.21-0.23l-0.3-.54a5.51,5.51,0,0,1,1.72-1.15,5.28,5.28,0,0,1,2-.38,3.53,3.53,0,0,1,1.42.27,3,3,0,0,1,1,.74,3.1,3.1,0,0,1,.64,1.15,4.83,4.83,0,0,1,.22,1.48v6.16h-0.75a0.74,0.74,0,0,1-.38-0.08,0.58,0.58,0,0,1-.21-0.32l-0.16-.9a9.56,9.56,0,0,1-.74.61,4.55,4.55,0,0,1-.76.45,3.9,3.9,0,0,1-.84.28,4.76,4.76,0,0,1-1,.1,3.54,3.54,0,0,1-1.05-.15,2.32,2.32,0,0,1-.85-0.47,2.25,2.25,0,0,1-.57-0.79A2.78,2.78,0,0,1,207.91,15.73Zm1.61-.1a1.58,1.58,0,0,0,.12.65,1.19,1.19,0,0,0,.33.44,1.33,1.33,0,0,0,.51.25,2.43,2.43,0,0,0,.63.08,3.58,3.58,0,0,0,.82-0.09,3.09,3.09,0,0,0,.7-0.25,3.76,3.76,0,0,0,.63-0.4,5.66,5.66,0,0,0,.59-0.54v-2a14.21,14.21,0,0,0-2,.18,5.74,5.74,0,0,0-1.34.38,1.83,1.83,0,0,0-.75.55A1.19,1.19,0,0,0,209.53,15.63Z"/><path class="cls-2" d="M140.88,40.93V31.28h1.38a0.85,0.85,0,0,1,.35.08,0.66,0.66,0,0,1,.3.3l3,5,0.21,0.45q0.1,0.23.19,0.47a6.71,6.71,0,0,1,.39-0.93l3-5a0.63,0.63,0,0,1,.3-0.31,0.93,0.93,0,0,1,.36-0.07h1.38v9.65h-1.61V34.54a5.73,5.73,0,0,1,0-.59q0-.33.09-0.62l-3.35,5.86a0.62,0.62,0,0,1-.2.22,0.49,0.49,0,0,1-.29.08h-0.19a0.52,0.52,0,0,1-.29-0.08,0.59,0.59,0,0,1-.2-0.22l-3.41-5.88q0,0.29.09,0.62a5.22,5.22,0,0,1,0,.6v6.39h-1.61Z"/><path class="cls-2" d="M153.16,31.31h1.46a0.52,0.52,0,0,1,.35.11,0.63,0.63,0,0,1,.18.25l2.57,6.06,0.14,0.42a3.38,3.38,0,0,1,.12.42q0.12-.43.28-0.85l2.5-6a0.55,0.55,0,0,1,.19-0.25,0.51,0.51,0,0,1,.31-0.1h1.34l-5.36,12.46a0.89,0.89,0,0,1-.21.3,0.59,0.59,0,0,1-.4.12h-1.25l1.76-3.81Z"/><path class="cls-2" d="M161.6,40.8V39.72h0.49a2,2,0,0,0,.66-0.12,1.72,1.72,0,0,0,.65-0.44,3.64,3.64,0,0,0,.61-0.9,7.62,7.62,0,0,0,.54-1.52,19.59,19.59,0,0,0,.42-2.27q0.18-1.34.27-3.16h6.15v9.62h-1.71V32.64h-3a29,29,0,0,1-.34,3.17,15.63,15.63,0,0,1-.55,2.27,6.38,6.38,0,0,1-.71,1.52,3.74,3.74,0,0,1-.83.91,2.43,2.43,0,0,1-.9.44,3.93,3.93,0,0,1-.92.11Q161.6,41.05,161.6,40.8Z"/><path class="cls-2" d="M173.88,40.93V31.31h1.61v3.78h2.09a5.35,5.35,0,0,1,1.71.24,3,3,0,0,1,1.11.63,2.32,2.32,0,0,1,.61.92A3.22,3.22,0,0,1,181.2,38a3,3,0,0,1-.24,1.2,2.59,2.59,0,0,1-.69.94,3.24,3.24,0,0,1-1.11.62,4.81,4.81,0,0,1-1.53.22h-3.75Zm1.61-1.22h2.08a2.72,2.72,0,0,0,.89-0.13,1.7,1.7,0,0,0,.62-0.36,1.51,1.51,0,0,0,.37-0.55,1.83,1.83,0,0,0,.13-0.68,1.92,1.92,0,0,0-.11-0.65,1.33,1.33,0,0,0-.35-0.53,1.73,1.73,0,0,0-.63-0.36,2.92,2.92,0,0,0-.95-0.13h-2.05v3.4Z"/><path class="cls-2" d="M180.5,32.64V31.31h9.06v1.33h-3.68v8.29h-1.71V32.64H180.5Z"/><path class="cls-2" d="M191.06,40.94V31.32h1.71v6.53q0,0.18,0,.39t0,0.43a2.62,2.62,0,0,1,.16-0.34l0.17-.28,0.22-.3,0.54-.73,0.75-1,0.84-1.15,2.31-3.12a1.52,1.52,0,0,1,.27-0.29,0.54,0.54,0,0,1,.36-0.14h1v9.62h-1.71V34.39q0-.18,0-0.39t0-.44q-0.08.19-.18,0.35l-0.18.29-0.22.3-0.54.73-0.75,1L195,37.4l-2.28,3.12a1.51,1.51,0,0,1-.26.29,0.53,0.53,0,0,1-.35.14h-1Z"/><path class="cls-2" d="M201.81,40.93V31.28h1.38a0.85,0.85,0,0,1,.35.08,0.66,0.66,0,0,1,.3.3l3,5,0.21,0.45q0.1,0.23.19,0.47a6.71,6.71,0,0,1,.39-0.93l3-5a0.63,0.63,0,0,1,.3-0.31,0.93,0.93,0,0,1,.36-0.07h1.38v9.65h-1.61V34.54a5.73,5.73,0,0,1,0-.59q0-.33.09-0.62l-3.35,5.86a0.62,0.62,0,0,1-.2.22,0.49,0.49,0,0,1-.29.08H207.2a0.52,0.52,0,0,1-.29-0.08,0.59,0.59,0,0,1-.2-0.22l-3.41-5.88q0,0.29.09,0.62a5.22,5.22,0,0,1,0,.6v6.39h-1.61Z"/><path class="cls-2" d="M214.59,35.92a5.53,5.53,0,0,1,.31-1.88,4.48,4.48,0,0,1,.89-1.51,4.09,4.09,0,0,1,1.42-1,4.7,4.7,0,0,1,1.9-.37,4.51,4.51,0,0,1,1.64.29,3.75,3.75,0,0,1,1.31.84,3.79,3.79,0,0,1,.86,1.35,5,5,0,0,1,.31,1.82,1.12,1.12,0,0,1-.08.53,0.36,0.36,0,0,1-.33.13H216.3a5.34,5.34,0,0,0,.25,1.59,3.22,3.22,0,0,0,.63,1.13,2.51,2.51,0,0,0,.95.67,3.27,3.27,0,0,0,1.24.22,3.68,3.68,0,0,0,1.11-.15,5.43,5.43,0,0,0,.8-0.32q0.34-.17.56-0.32a0.76,0.76,0,0,1,.39-0.14,0.41,0.41,0,0,1,.35.16l0.51,0.62a3.27,3.27,0,0,1-.77.66,4.91,4.91,0,0,1-1,.46,6,6,0,0,1-1.05.27,6.76,6.76,0,0,1-1.08.09,5,5,0,0,1-1.85-.33,4,4,0,0,1-1.46-1,4.58,4.58,0,0,1-1-1.61A6.48,6.48,0,0,1,214.59,35.92Zm1.76-.85h5.26a3.38,3.38,0,0,0-.17-1.08,2.44,2.44,0,0,0-.49-0.85,2.17,2.17,0,0,0-.78-0.56,2.6,2.6,0,0,0-1-.2,2.57,2.57,0,0,0-1.92.71A3.41,3.41,0,0,0,216.36,35.07Z"/><path class="cls-2" d="M224.27,39.71h0.42a1.9,1.9,0,0,0,.66-0.14A1.72,1.72,0,0,0,226,39.1a3.62,3.62,0,0,0,.57-0.92,8.48,8.48,0,0,0,.49-1.52,22,22,0,0,0,.39-2.25q0.17-1.32.25-3.1h6.05v8.35h1.84v4.07a0.5,0.5,0,0,1-.15.39,0.54,0.54,0,0,1-.38.13h-1.09V40.93h-8.05v2.84a0.55,0.55,0,0,1-.11.33,0.44,0.44,0,0,1-.38.15h-1.12V39.71Zm3.07,0h4.76V32.64h-3q-0.09,1.49-.26,2.63a19.89,19.89,0,0,1-.39,2,9.33,9.33,0,0,1-.49,1.46A4.8,4.8,0,0,1,227.33,39.71Z"/><path class="cls-2" d="M236.73,28.29a1.24,1.24,0,0,1,.35-0.86,1.16,1.16,0,0,1,.37-0.26,1.14,1.14,0,0,1,.46-0.09,1.2,1.2,0,0,1,.47.09,1.22,1.22,0,0,1,.39.26,1.32,1.32,0,0,1,.27.39,1.11,1.11,0,0,1,.1.47,1.05,1.05,0,0,1-.1.46,1.36,1.36,0,0,1-.27.38,1.23,1.23,0,0,1-.86.35,1.13,1.13,0,0,1-.46-0.09,1.16,1.16,0,0,1-.37-0.26,1.26,1.26,0,0,1-.25-0.38A1.16,1.16,0,0,1,236.73,28.29Zm0.34,12.65V31.31h1.71v9.62h-1.71Z"/><path class="cls-2" d="M241.19,40.94V31.32h1.71v6.53q0,0.18,0,.39t0,0.43a2.62,2.62,0,0,1,.16-0.34l0.17-.28,0.22-.3,0.54-.73,0.75-1,0.85-1.15,2.31-3.12a1.52,1.52,0,0,1,.27-0.29,0.54,0.54,0,0,1,.36-0.14h1v9.62h-1.71V34.39q0-.18,0-0.39t0-.44q-0.08.19-.17,0.35l-0.17.29-0.22.3-0.54.73-0.75,1-0.85,1.15-2.29,3.12a1.51,1.51,0,0,1-.26.29,0.53,0.53,0,0,1-.35.14h-1Zm1.48-13.11a0.69,0.69,0,0,1,.09-0.35,0.3,0.3,0,0,1,.28-0.16h1a3.35,3.35,0,0,0,.07.77,1.22,1.22,0,0,0,.24.51,1,1,0,0,0,.44.29,2,2,0,0,0,.66.09,2,2,0,0,0,.66-0.09,1,1,0,0,0,.43-0.29,1.22,1.22,0,0,0,.24-0.51,3.35,3.35,0,0,0,.07-0.77h1a0.31,0.31,0,0,1,.27.16,0.66,0.66,0,0,1,.1.35,1.88,1.88,0,0,1-.19.85,1.83,1.83,0,0,1-.55.65,2.6,2.6,0,0,1-.87.41,4.76,4.76,0,0,1-2.32,0,2.54,2.54,0,0,1-.87-0.41,1.85,1.85,0,0,1-.54-0.65A1.88,1.88,0,0,1,242.66,27.83Z"/><path class="cls-2" d="M251.94,40.93V31.31h1.71V35.1h4.61V31.31H260v9.62h-1.71v-4.5h-4.61v4.5h-1.71Z"/><path class="cls-2" d="M262.46,40.94V31.32h1.71v6.53q0,0.18,0,.39t0,0.43a2.62,2.62,0,0,1,.16-0.34l0.17-.28,0.22-.3,0.54-.73,0.75-1,0.84-1.15,2.31-3.12a1.52,1.52,0,0,1,.27-0.29,0.54,0.54,0,0,1,.36-0.14h1v9.62H269V34.39q0-.18,0-0.39t0-.44q-0.08.19-.18,0.35l-0.18.29-0.22.3-0.54.73-0.75,1-0.84,1.15-2.28,3.12a1.51,1.51,0,0,1-.26.29,0.53,0.53,0,0,1-.35.14h-1Z"/><path class="cls-2" d="M272.2,40.93L275.57,36l-3.24-4.69H274a0.55,0.55,0,0,1,.31.06,0.62,0.62,0,0,1,.17.19l2.36,3.61a2.17,2.17,0,0,1,.25-0.53l2.07-3a0.82,0.82,0,0,1,.19-0.21,0.38,0.38,0,0,1,.24-0.08h1.56l-3.24,4.59,3.37,5h-1.62a0.46,0.46,0,0,1-.33-0.11,1.06,1.06,0,0,1-.19-0.24l-2.42-3.77a1.53,1.53,0,0,1-.2.49l-2.24,3.27a1.92,1.92,0,0,1-.2.24,0.41,0.41,0,0,1-.31.11h-1.5Z"/><path class="cls-2" d="M286.27,32.64V31.31h9.06v1.33h-3.68v8.29h-1.71V32.64h-3.67Z"/><path class="cls-2" d="M296.11,35.92a5.53,5.53,0,0,1,.31-1.88,4.48,4.48,0,0,1,.89-1.51,4.09,4.09,0,0,1,1.42-1,4.7,4.7,0,0,1,1.9-.37,4.51,4.51,0,0,1,1.64.29,3.75,3.75,0,0,1,1.31.84,3.79,3.79,0,0,1,.86,1.35,5,5,0,0,1,.31,1.82,1.12,1.12,0,0,1-.08.53,0.36,0.36,0,0,1-.33.13h-6.52a5.34,5.34,0,0,0,.25,1.59,3.22,3.22,0,0,0,.63,1.13,2.51,2.51,0,0,0,.95.67,3.27,3.27,0,0,0,1.24.22,3.68,3.68,0,0,0,1.11-.15,5.43,5.43,0,0,0,.8-0.32q0.34-.17.56-0.32a0.76,0.76,0,0,1,.39-0.14,0.41,0.41,0,0,1,.35.16l0.51,0.62a3.27,3.27,0,0,1-.77.66,4.91,4.91,0,0,1-1,.46,6,6,0,0,1-1.05.27,6.76,6.76,0,0,1-1.08.09,5,5,0,0,1-1.85-.33,4,4,0,0,1-1.46-1,4.58,4.58,0,0,1-1-1.61A6.48,6.48,0,0,1,296.11,35.92Zm1.76-.85h5.26A3.38,3.38,0,0,0,303,34a2.44,2.44,0,0,0-.49-0.85,2.17,2.17,0,0,0-.78-0.56,2.6,2.6,0,0,0-1-.2,2.57,2.57,0,0,0-1.92.71A3.41,3.41,0,0,0,297.87,35.07Z"/><path class="cls-2" d="M305.45,40.93L308.81,36l-3.24-4.69h1.62a0.55,0.55,0,0,1,.31.06,0.62,0.62,0,0,1,.17.19L310,35.17a2.17,2.17,0,0,1,.25-0.53l2.07-3a0.82,0.82,0,0,1,.19-0.21,0.38,0.38,0,0,1,.24-0.08h1.56L311.1,35.9l3.37,5h-1.62a0.46,0.46,0,0,1-.33-0.11,1.06,1.06,0,0,1-.19-0.24l-2.42-3.77a1.53,1.53,0,0,1-.2.49l-2.24,3.27a1.92,1.92,0,0,1-.2.24,0.41,0.41,0,0,1-.31.11h-1.5Z"/><path class="cls-2" d="M315.94,40.93V31.31h1.71V35.1h4.61V31.31H324v9.62h-1.71v-4.5h-4.61v4.5h-1.71Z"/><path class="cls-2" d="M325.94,36.11a6.21,6.21,0,0,1,.32-2,4.39,4.39,0,0,1,.91-1.56,4.06,4.06,0,0,1,1.44-1,4.92,4.92,0,0,1,1.91-.35,4.84,4.84,0,0,1,1.89.35,4.06,4.06,0,0,1,1.43,1,4.33,4.33,0,0,1,.91,1.56,6.87,6.87,0,0,1,0,4.1,4.41,4.41,0,0,1-.91,1.56,3.93,3.93,0,0,1-1.44,1,5,5,0,0,1-1.88.34,5,5,0,0,1-1.91-.34,3.94,3.94,0,0,1-1.44-1,4.47,4.47,0,0,1-.91-1.56A6.2,6.2,0,0,1,325.94,36.11Zm1.71,0a4.38,4.38,0,0,0,.71,2.66,2.52,2.52,0,0,0,2.16,1,2.47,2.47,0,0,0,2.13-1,4.42,4.42,0,0,0,.7-2.66,4.44,4.44,0,0,0-.71-2.68,2.47,2.47,0,0,0-2.13-1,3,3,0,0,0-1.26.25,2.34,2.34,0,0,0-.9.71,3.14,3.14,0,0,0-.53,1.15A6.14,6.14,0,0,0,327.65,36.12Z"/><path class="cls-2" d="M335.7,40.8V39.72h0.49a2,2,0,0,0,.66-0.12,1.72,1.72,0,0,0,.65-0.44,3.64,3.64,0,0,0,.61-0.9,7.62,7.62,0,0,0,.54-1.52,19.59,19.59,0,0,0,.42-2.27q0.18-1.34.27-3.16h6.15v9.62h-1.71V32.64h-3a29,29,0,0,1-.34,3.17,15.63,15.63,0,0,1-.55,2.27,6.38,6.38,0,0,1-.71,1.52,3.74,3.74,0,0,1-.83.91,2.43,2.43,0,0,1-.9.44,3.93,3.93,0,0,1-.92.11Q335.7,41.05,335.7,40.8Z"/><path class="cls-2" d="M347.47,36.11a6.21,6.21,0,0,1,.32-2,4.39,4.39,0,0,1,.91-1.56,4.06,4.06,0,0,1,1.44-1,4.92,4.92,0,0,1,1.91-.35,4.84,4.84,0,0,1,1.89.35,4.06,4.06,0,0,1,1.43,1,4.33,4.33,0,0,1,.91,1.56,6.87,6.87,0,0,1,0,4.1,4.41,4.41,0,0,1-.91,1.56,3.93,3.93,0,0,1-1.44,1,5,5,0,0,1-1.88.34,5,5,0,0,1-1.91-.34,3.94,3.94,0,0,1-1.44-1,4.47,4.47,0,0,1-.91-1.56A6.2,6.2,0,0,1,347.47,36.11Zm1.71,0a4.38,4.38,0,0,0,.71,2.66,2.52,2.52,0,0,0,2.16,1,2.47,2.47,0,0,0,2.13-1,4.42,4.42,0,0,0,.7-2.66,4.44,4.44,0,0,0-.71-2.68,2.47,2.47,0,0,0-2.13-1,3,3,0,0,0-1.26.25,2.34,2.34,0,0,0-.9.71,3.14,3.14,0,0,0-.53,1.15A6.14,6.14,0,0,0,349.18,36.12Z"/><path class="cls-2" d="M358.59,40.93V31.31h6.24v1.33H360.3v8.29h-1.71Z"/><path class="cls-2" d="M366,28.29a1.24,1.24,0,0,1,.35-0.86,1.16,1.16,0,0,1,.37-0.26,1.14,1.14,0,0,1,.46-0.09,1.2,1.2,0,0,1,.47.09,1.22,1.22,0,0,1,.39.26,1.32,1.32,0,0,1,.27.39,1.11,1.11,0,0,1,.1.47,1.05,1.05,0,0,1-.1.46,1.36,1.36,0,0,1-.27.38,1.23,1.23,0,0,1-.86.35,1.13,1.13,0,0,1-.46-0.09,1.16,1.16,0,0,1-.37-0.26,1.26,1.26,0,0,1-.25-0.38A1.16,1.16,0,0,1,366,28.29Zm0.34,12.65V31.31h1.71v9.62h-1.71Z"/><path class="cls-2" d="M370.49,40.94V31.32h1.71v6.53q0,0.18,0,.39t0,0.43a2.62,2.62,0,0,1,.16-0.34l0.17-.28,0.22-.3,0.54-.73L374,36l0.85-1.15,2.31-3.12a1.52,1.52,0,0,1,.27-0.29,0.54,0.54,0,0,1,.36-0.14h1v9.62h-1.71V34.39q0-.18,0-0.39t0-.44q-0.08.19-.17,0.35l-0.17.29-0.22.3-0.54.73-0.75,1-0.85,1.15-2.29,3.12a1.51,1.51,0,0,1-.26.29,0.53,0.53,0,0,1-.35.14h-1ZM372,27.83a0.69,0.69,0,0,1,.09-0.35,0.3,0.3,0,0,1,.28-0.16h1a3.35,3.35,0,0,0,.07.77,1.22,1.22,0,0,0,.24.51,1,1,0,0,0,.44.29,2,2,0,0,0,.66.09,2,2,0,0,0,.66-0.09,1,1,0,0,0,.43-0.29,1.22,1.22,0,0,0,.24-0.51,3.35,3.35,0,0,0,.07-0.77h1a0.31,0.31,0,0,1,.27.16,0.66,0.66,0,0,1,.1.35,1.88,1.88,0,0,1-.19.85,1.83,1.83,0,0,1-.55.65,2.6,2.6,0,0,1-.87.41,4.76,4.76,0,0,1-2.32,0,2.54,2.54,0,0,1-.87-0.41,1.85,1.85,0,0,1-.54-0.65A1.88,1.88,0,0,1,372,27.83Z"/><path class="cls-2" d="M140.62,51.09a1.24,1.24,0,0,1,.35-0.86,1.16,1.16,0,0,1,.37-0.26,1.14,1.14,0,0,1,.46-0.09,1.2,1.2,0,0,1,.47.09,1.22,1.22,0,0,1,.39.26,1.32,1.32,0,0,1,.27.39,1.11,1.11,0,0,1,.1.47,1.05,1.05,0,0,1-.1.46,1.36,1.36,0,0,1-.27.38,1.23,1.23,0,0,1-.86.35,1.13,1.13,0,0,1-.46-0.09,1.16,1.16,0,0,1-.37-0.26,1.26,1.26,0,0,1-.25-0.38A1.16,1.16,0,0,1,140.62,51.09ZM141,63.73V54.11h1.71v9.62H141Z"/><path class="cls-2" d="M150,63.73V54.08h1.38a0.85,0.85,0,0,1,.35.08,0.66,0.66,0,0,1,.3.3l3,5,0.21,0.45q0.1,0.23.19,0.47a6.71,6.71,0,0,1,.39-0.93l3-5a0.63,0.63,0,0,1,.3-0.31,0.93,0.93,0,0,1,.36-0.07h1.38v9.65h-1.61V57.34a5.73,5.73,0,0,1,0-.59q0-.33.09-0.62L156,62a0.62,0.62,0,0,1-.2.22,0.49,0.49,0,0,1-.29.08h-0.19a0.52,0.52,0,0,1-.29-0.08,0.59,0.59,0,0,1-.2-0.22l-3.41-5.88q0,0.29.09,0.62a5.22,5.22,0,0,1,0,.6v6.39H150Z"/><path class="cls-2" d="M162.77,58.72a5.53,5.53,0,0,1,.31-1.88,4.48,4.48,0,0,1,.89-1.51,4.09,4.09,0,0,1,1.42-1,4.7,4.7,0,0,1,1.9-.37,4.51,4.51,0,0,1,1.64.29,3.75,3.75,0,0,1,1.31.84,3.79,3.79,0,0,1,.86,1.35,5,5,0,0,1,.31,1.82,1.12,1.12,0,0,1-.08.53,0.36,0.36,0,0,1-.33.13h-6.52a5.34,5.34,0,0,0,.25,1.59,3.22,3.22,0,0,0,.63,1.13,2.51,2.51,0,0,0,.95.67,3.27,3.27,0,0,0,1.24.22,3.68,3.68,0,0,0,1.11-.15,5.43,5.43,0,0,0,.8-0.32q0.34-.17.56-0.32a0.76,0.76,0,0,1,.39-0.14,0.41,0.41,0,0,1,.35.16l0.51,0.62a3.27,3.27,0,0,1-.77.66,4.91,4.91,0,0,1-1,.46,6,6,0,0,1-1.05.27,6.76,6.76,0,0,1-1.08.09,5,5,0,0,1-1.85-.33,4,4,0,0,1-1.46-1,4.58,4.58,0,0,1-1-1.61A6.48,6.48,0,0,1,162.77,58.72Zm1.76-.85h5.26a3.38,3.38,0,0,0-.17-1.08,2.44,2.44,0,0,0-.49-0.85,2.16,2.16,0,0,0-.78-0.56,2.6,2.6,0,0,0-1-.2,2.57,2.57,0,0,0-1.92.71A3.41,3.41,0,0,0,164.54,57.87Z"/><path class="cls-2" d="M172.45,62.51h0.42a1.9,1.9,0,0,0,.66-0.14,1.72,1.72,0,0,0,.62-0.46,3.62,3.62,0,0,0,.57-0.92,8.48,8.48,0,0,0,.49-1.52,22,22,0,0,0,.39-2.25q0.17-1.32.25-3.1h6.05v8.35h1.84v4.07a0.5,0.5,0,0,1-.15.39,0.54,0.54,0,0,1-.38.13h-1.09V63.73h-8.05v2.84a0.55,0.55,0,0,1-.11.33,0.44,0.44,0,0,1-.38.15h-1.12V62.51Zm3.07,0h4.76V55.44h-3q-0.09,1.49-.26,2.63a19.89,19.89,0,0,1-.39,2,9.33,9.33,0,0,1-.49,1.46A4.8,4.8,0,0,1,175.51,62.51Z"/><path class="cls-2" d="M184.91,51.09a1.24,1.24,0,0,1,.35-0.86,1.16,1.16,0,0,1,.37-0.26,1.14,1.14,0,0,1,.46-0.09,1.2,1.2,0,0,1,.47.09,1.22,1.22,0,0,1,.39.26,1.32,1.32,0,0,1,.27.39,1.11,1.11,0,0,1,.1.47,1.05,1.05,0,0,1-.1.46,1.36,1.36,0,0,1-.27.38,1.23,1.23,0,0,1-.86.35,1.13,1.13,0,0,1-.46-0.09,1.16,1.16,0,0,1-.37-0.26,1.26,1.26,0,0,1-.25-0.38A1.16,1.16,0,0,1,184.91,51.09Zm0.34,12.65V54.11H187v9.62h-1.71Z"/><path class="cls-2" d="M188.73,61.33a2.13,2.13,0,0,1,.31-1.09,2.71,2.71,0,0,1,1-.94,6.77,6.77,0,0,1,1.83-.67,13.75,13.75,0,0,1,2.78-.3V57.57a2.55,2.55,0,0,0-.49-1.69,1.76,1.76,0,0,0-1.42-.57,3,3,0,0,0-1.05.16,4.29,4.29,0,0,0-.73.35l-0.53.35a0.76,0.76,0,0,1-.44.16,0.49,0.49,0,0,1-.29-0.09A0.73,0.73,0,0,1,189.5,56l-0.3-.54a5.51,5.51,0,0,1,1.72-1.15,5.28,5.28,0,0,1,2-.38,3.53,3.53,0,0,1,1.42.27,3,3,0,0,1,1,.74,3.1,3.1,0,0,1,.64,1.15,4.83,4.83,0,0,1,.22,1.48v6.16h-0.75a0.74,0.74,0,0,1-.38-0.08,0.58,0.58,0,0,1-.21-0.32l-0.16-.9A9.56,9.56,0,0,1,194,63a4.55,4.55,0,0,1-.76.45,3.9,3.9,0,0,1-.84.28,4.76,4.76,0,0,1-1,.1,3.54,3.54,0,0,1-1.05-.15,2.32,2.32,0,0,1-.85-0.47,2.25,2.25,0,0,1-.57-0.79A2.78,2.78,0,0,1,188.73,61.33Zm1.61-.1a1.58,1.58,0,0,0,.12.65,1.19,1.19,0,0,0,.33.44,1.33,1.33,0,0,0,.51.25,2.43,2.43,0,0,0,.63.08,3.59,3.59,0,0,0,.82-0.09,3.09,3.09,0,0,0,.7-0.25,3.75,3.75,0,0,0,.63-0.4,5.66,5.66,0,0,0,.59-0.54v-2a14.21,14.21,0,0,0-2,.18,5.74,5.74,0,0,0-1.34.38,1.83,1.83,0,0,0-.75.55A1.19,1.19,0,0,0,190.34,61.23Z"/><path class="cls-2" d="M197.73,62.51h0.42a1.9,1.9,0,0,0,.66-0.14,1.72,1.72,0,0,0,.62-0.46A3.62,3.62,0,0,0,200,61a8.48,8.48,0,0,0,.49-1.52,22,22,0,0,0,.39-2.25q0.17-1.32.25-3.1h6.05v8.35H209v4.07a0.5,0.5,0,0,1-.15.39,0.54,0.54,0,0,1-.38.13h-1.09V63.73h-8.05v2.84a0.55,0.55,0,0,1-.11.33,0.44,0.44,0,0,1-.38.15h-1.12V62.51Zm3.07,0h4.76V55.44h-3q-0.09,1.49-.26,2.63a19.89,19.89,0,0,1-.39,2,9.33,9.33,0,0,1-.49,1.46A4.8,4.8,0,0,1,200.79,62.51Z"/><path class="cls-2" d="M210.49,63.74V54.12h1.71v6.53q0,0.18,0,.39t0,0.43a2.62,2.62,0,0,1,.16-0.34l0.17-.28,0.22-.3,0.54-.73,0.75-1,0.84-1.15,2.31-3.12a1.52,1.52,0,0,1,.27-0.29,0.54,0.54,0,0,1,.36-0.14h1v9.62h-1.71V57.19q0-.18,0-0.39t0-.44q-0.08.19-.18,0.35l-0.18.29-0.22.3L216,58l-0.75,1-0.84,1.15-2.28,3.12a1.51,1.51,0,0,1-.26.29,0.53,0.53,0,0,1-.35.14h-1Z"/><path class="cls-2" d="M220.37,62.37l0.47-.62a0.37,0.37,0,0,1,.32-0.16,0.65,0.65,0,0,1,.37.14L222,62.06a3.47,3.47,0,0,0,.7.33,3,3,0,0,0,1,.15,3.12,3.12,0,0,0,.93-0.13,2.17,2.17,0,0,0,.7-0.36,1.51,1.51,0,0,0,.44-0.54,1.55,1.55,0,0,0,.15-0.68,1.35,1.35,0,0,0-.59-1.14,3.05,3.05,0,0,0-1.8-.43h-1.09V58h1.09a3.82,3.82,0,0,0,.94-0.11,2.5,2.5,0,0,0,.71-0.29,1.31,1.31,0,0,0,.45-0.44,1.09,1.09,0,0,0,.15-0.56,1.11,1.11,0,0,0-.13-0.52,1.23,1.23,0,0,0-.39-0.43,2.08,2.08,0,0,0-.65-0.29,3.44,3.44,0,0,0-.91-0.11,3.63,3.63,0,0,0-1,.11,3.78,3.78,0,0,0-.67.25,4.62,4.62,0,0,0-.44.25,0.57,0.57,0,0,1-.29.11,0.41,0.41,0,0,1-.2,0,0.55,0.55,0,0,1-.18-0.19l-0.39-.66a4.17,4.17,0,0,1,1.31-.83,5,5,0,0,1,1.87-.32,5.14,5.14,0,0,1,1.54.21,3.94,3.94,0,0,1,1.14.56,2.43,2.43,0,0,1,.72.79,1.9,1.9,0,0,1,.24.93,2.06,2.06,0,0,1-.09.59,1.91,1.91,0,0,1-.3.59,2.66,2.66,0,0,1-.54.53,2.57,2.57,0,0,1-.83.4,2.79,2.79,0,0,1,1.41.9,2.37,2.37,0,0,1,.49,1.52,2.41,2.41,0,0,1-.3,1.21,2.87,2.87,0,0,1-.82.91,3.84,3.84,0,0,1-1.19.58,5,5,0,0,1-1.42.2,5.48,5.48,0,0,1-.95-0.08A4.45,4.45,0,0,1,222,63.5a4.64,4.64,0,0,1-.86-0.46A3.33,3.33,0,0,1,220.37,62.37Z"/><path class="cls-2" d="M229,61.33a2.13,2.13,0,0,1,.31-1.09,2.71,2.71,0,0,1,1-.94,6.77,6.77,0,0,1,1.83-.67,13.75,13.75,0,0,1,2.78-.3V57.57a2.55,2.55,0,0,0-.49-1.69,1.76,1.76,0,0,0-1.42-.57,3,3,0,0,0-1.05.16,4.29,4.29,0,0,0-.73.35l-0.53.35a0.76,0.76,0,0,1-.44.16,0.49,0.49,0,0,1-.29-0.09,0.73,0.73,0,0,1-.21-0.23l-0.3-.54a5.51,5.51,0,0,1,1.72-1.15,5.28,5.28,0,0,1,2-.38,3.53,3.53,0,0,1,1.42.27,3,3,0,0,1,1,.74,3.1,3.1,0,0,1,.64,1.15,4.83,4.83,0,0,1,.22,1.48v6.16h-0.75a0.74,0.74,0,0,1-.38-0.08,0.58,0.58,0,0,1-.21-0.32l-0.16-.9a9.56,9.56,0,0,1-.74.61,4.55,4.55,0,0,1-.76.45,3.9,3.9,0,0,1-.84.28,4.76,4.76,0,0,1-1,.1,3.54,3.54,0,0,1-1.05-.15,2.32,2.32,0,0,1-.85-0.47,2.25,2.25,0,0,1-.57-0.79A2.78,2.78,0,0,1,229,61.33Zm1.61-.1a1.58,1.58,0,0,0,.12.65,1.19,1.19,0,0,0,.33.44,1.33,1.33,0,0,0,.51.25,2.43,2.43,0,0,0,.63.08,3.59,3.59,0,0,0,.82-0.09,3.09,3.09,0,0,0,.7-0.25,3.75,3.75,0,0,0,.63-0.4,5.66,5.66,0,0,0,.59-0.54v-2a14.21,14.21,0,0,0-2,.18,5.74,5.74,0,0,0-1.34.38,1.83,1.83,0,0,0-.75.55A1.19,1.19,0,0,0,230.6,61.23Z"/><path class="cls-2" d="M239,63.74V54.12h1.71v6.53q0,0.18,0,.39t0,0.43a2.62,2.62,0,0,1,.16-0.34l0.17-.28,0.22-.3,0.54-.73,0.75-1,0.85-1.15,2.31-3.12a1.52,1.52,0,0,1,.27-0.29,0.54,0.54,0,0,1,.36-0.14h1v9.62h-1.71V57.19q0-.18,0-0.39t0-.44q-0.08.19-.17,0.35l-0.17.29-0.22.3L244.5,58l-0.75,1-0.85,1.15-2.29,3.12a1.51,1.51,0,0,1-.26.29,0.53,0.53,0,0,1-.35.14h-1Zm1.48-13.11a0.69,0.69,0,0,1,.09-0.35,0.3,0.3,0,0,1,.28-0.16h1a3.35,3.35,0,0,0,.07.77,1.22,1.22,0,0,0,.24.51,1,1,0,0,0,.44.29,2,2,0,0,0,.66.09,2,2,0,0,0,.66-0.09,1,1,0,0,0,.43-0.29,1.22,1.22,0,0,0,.24-0.51,3.35,3.35,0,0,0,.07-0.77h1a0.31,0.31,0,0,1,.27.16,0.66,0.66,0,0,1,.1.35,1.88,1.88,0,0,1-.19.85,1.83,1.83,0,0,1-.55.65,2.6,2.6,0,0,1-.87.41,4.76,4.76,0,0,1-2.32,0,2.54,2.54,0,0,1-.87-0.41,1.85,1.85,0,0,1-.54-0.65A1.88,1.88,0,0,1,240.45,50.63Z"/><path class="cls-2" d="M249.73,63.73V54.11h1.71V57.9H256V54.11h1.71v9.62H256v-4.5h-4.61v4.5h-1.71Z"/><path class="cls-2" d="M259.22,54.11h1.46a0.52,0.52,0,0,1,.35.11,0.63,0.63,0,0,1,.18.25l2.57,6.06,0.14,0.42a3.38,3.38,0,0,1,.12.42q0.12-.43.28-0.85l2.5-6a0.55,0.55,0,0,1,.19-0.25,0.51,0.51,0,0,1,.31-0.1h1.34L263.3,66.57a0.89,0.89,0,0,1-.21.3,0.59,0.59,0,0,1-.4.12h-1.25l1.76-3.81Z"/></svg>